<?xml version="1.0" standalone="no"?>
<!DOCTYPE svg PUBLIC "-//W3C//DTD SVG 20010904//EN"
 "http://www.w3.org/TR/2001/REC-SVG-20010904/DTD/svg10.dtd">
<svg version="1.0" xmlns="http://www.w3.org/2000/svg"
 width="450.000000pt" height="450.000000pt" viewBox="0 0 450.000000 450.000000"
 preserveAspectRatio="xMidYMid meet">

<g transform="translate(0.000000,450.000000) scale(0.100000,-0.100000)"
fill="#000000" stroke="none">
<path d="M1074 3880 c-61 -14 -293 -217 -389 -341 -22 -28 -48 -60 -59 -72
-77 -91 -245 -388 -274 -488 -6 -18 -24 -72 -40 -119 -85 -239 -121 -614 -86
-880 41 -305 156 -613 323 -863 84 -124 115 -153 176 -163 97 -14 178 56 179
154 1 44 -6 58 -75 163 -189 283 -284 566 -296 884 -20 524 173 996 546 1335
45 41 106 96 134 122 l52 46 0 64 c0 76 -26 120 -89 149 -44 20 -54 21 -102 9z"/>
<path d="M3654 3501 c-76 -47 -102 -128 -64 -206 12 -26 33 -58 45 -73 34 -42
111 -171 148 -253 123 -265 161 -440 160 -739 0 -195 -3 -227 -43 -395 -54
-236 -164 -463 -318 -660 -63 -79 -200 -216 -282 -281 -67 -52 -92 -92 -92
-147 -2 -83 53 -147 131 -155 71 -6 89 0 172 66 152 121 308 291 415 455 29
45 57 87 62 92 20 24 110 215 136 290 16 44 34 94 41 110 24 55 54 188 76 330
50 323 16 684 -93 985 -83 230 -260 531 -341 581 -41 25 -112 25 -153 0z"/>
<path d="M1480 3353 c-53 -10 -193 -129 -289 -246 -140 -173 -231 -357 -280
-567 -43 -191 -43 -432 1 -620 42 -183 183 -462 269 -534 56 -47 160 -44 207
7 26 28 52 88 52 121 0 31 -18 74 -41 101 -10 11 -41 60 -69 110 -229 396
-164 908 155 1230 39 39 88 87 110 106 61 51 75 76 75 135 0 65 -29 111 -90
142 -44 22 -53 23 -100 15z"/>
<path d="M3119 3100 c-43 -22 -79 -87 -79 -141 0 -37 7 -52 89 -186 108 -176
151 -333 151 -544 0 -107 -5 -151 -26 -238 -34 -137 -112 -307 -171 -369 -7
-7 -13 -16 -13 -20 0 -12 -122 -136 -178 -181 -63 -52 -82 -86 -84 -146 -2
-111 110 -186 218 -144 35 13 122 85 196 164 201 212 310 437 368 755 13 74 5
366 -13 450 -50 236 -202 541 -300 601 -41 24 -111 24 -158 -1z"/>
<path d="M2042 2860 c-334 -88 -537 -431 -452 -764 71 -279 324 -476 610 -476
165 0 328 68 445 186 246 248 246 640 0 888 -156 157 -390 221 -603 166z"/>
</g>
</svg>
