<?xml version="1.0" standalone="no"?>
<!DOCTYPE svg PUBLIC "-//W3C//DTD SVG 20010904//EN"
 "http://www.w3.org/TR/2001/REC-SVG-20010904/DTD/svg10.dtd">
<svg version="1.0" xmlns="http://www.w3.org/2000/svg"
 width="300.000000pt" height="300.000000pt" viewBox="0 0 300.000000 300.000000"
 preserveAspectRatio="xMidYMid meet">

<g transform="translate(0.000000,300.000000) scale(0.100000,-0.100000)"
stroke="none">
<path d="M343 2700 c-63 -13 -114 -43 -164 -97 -89 -95 -84 -44 -84 -918 l0
-770 26 -56 c33 -71 87 -125 158 -158 l56 -26 401 -3 400 -3 -28 -56 c-56
-112 -31 -253 60 -335 77 -69 92 -73 327 -73 210 0 210 0 267 28 61 30 96 65
131 131 16 32 21 59 21 121 1 69 -3 87 -27 129 -15 27 -27 50 -27 52 0 2 190
4 423 6 l422 3 56 26 c71 33 125 87 158 158 l26 56 0 770 c0 736 -1 772 -19
820 -26 65 -103 147 -169 176 l-52 24 -1160 2 c-638 0 -1179 -3 -1202 -7z
m2361 -92 c54 -16 128 -90 144 -144 17 -58 17 -1489 0 -1545 -15 -52 -73 -117
-122 -140 -39 -18 -96 -19 -1206 -19 -1110 0 -1167 1 -1206 19 -49 23 -107 88
-122 140 -17 56 -17 1487 0 1545 15 50 89 127 138 143 53 17 2318 17 2374 1z"/>
<path d="M1998 2491 c-89 -32 -164 -86 -217 -156 -47 -62 -54 -74 -80 -154
-41 -126 -18 -303 53 -411 87 -132 251 -220 411 -220 267 0 485 219 485 486 0
336 -335 570 -652 455z m312 -122 c81 -38 142 -96 183 -174 30 -56 32 -67 32
-160 0 -95 -2 -103 -34 -163 -39 -72 -98 -129 -173 -169 -48 -25 -63 -28 -153
-28 -93 0 -104 2 -160 32 -78 41 -136 102 -174 183 -27 56 -31 77 -31 145 0
71 4 89 34 150 39 80 99 143 171 178 72 35 72 35 160 36 69 1 89 -3 145 -30z"/>
<path d="M2088 2203 l-3 -88 -87 -3 -88 -3 0 -69 0 -69 88 -3 87 -3 3 -87 3
-88 69 0 69 0 3 88 3 87 88 3 87 3 0 69 0 69 -87 3 -88 3 -3 88 -3 87 -69 0
-69 0 -3 -87z"/>
<path d="M440 2202 c-21 -10 -42 -32 -54 -55 -16 -34 -17 -42 -5 -74 8 -20 27
-45 42 -57 28 -21 36 -21 522 -21 486 0 494 0 522 21 15 12 34 37 42 57 12 32
11 40 -5 74 -37 74 -29 73 -559 73 -427 0 -473 -2 -505 -18z"/>
<path d="M440 1822 c-21 -10 -42 -32 -54 -55 -16 -34 -17 -42 -5 -74 8 -20 27
-45 42 -57 28 -21 36 -21 522 -21 486 0 494 0 522 21 15 12 34 37 42 57 12 32
11 40 -5 74 -37 74 -29 73 -559 73 -427 0 -473 -2 -505 -18z"/>
<path d="M444 1399 c-104 -30 -84 -148 28 -164 24 -3 437 -5 918 -3 824 3 878
4 903 21 55 36 55 98 0 134 -26 17 -78 18 -923 20 -510 1 -908 -2 -926 -8z"/>
<path d="M430 1052 c-19 -9 -41 -29 -49 -43 -13 -24 -13 -29 3 -54 37 -57 8
-55 971 -55 963 0 934 -2 971 55 16 25 16 30 3 54 -8 14 -30 34 -49 43 -33 17
-98 18 -925 18 -827 0 -892 -1 -925 -18z"/>
</g>
</svg>
