<?xml version="1.0" standalone="no"?>
<!DOCTYPE svg PUBLIC "-//W3C//DTD SVG 20010904//EN"
 "http://www.w3.org/TR/2001/REC-SVG-20010904/DTD/svg10.dtd">
<svg version="1.0" xmlns="http://www.w3.org/2000/svg"
 width="300.000000pt" height="300.000000pt" viewBox="0 0 300.000000 300.000000"
 preserveAspectRatio="xMidYMid meet">

<g transform="translate(0.000000,300.000000) scale(0.100000,-0.100000)"
stroke="none">
<path d="M2498 2668 l-3 -123 -122 -3 -123 -3 0 -109 0 -109 123 -3 122 -3 3
-122 3 -123 109 0 109 0 3 123 3 122 123 3 122 3 0 109 0 109 -122 3 -123 3
-3 123 -3 122 -109 0 -109 0 -3 -122z"/>
<path d="M1610 2685 c-86 -25 -141 -55 -196 -110 -54 -54 -99 -138 -110 -203
-6 -40 -5 -43 48 -91 60 -55 107 -134 134 -226 20 -67 23 -268 6 -341 -11 -48
-10 -50 40 -88 86 -64 236 -83 351 -45 108 36 179 104 243 234 58 117 84 222
91 365 6 129 -4 196 -42 279 -50 106 -127 176 -240 215 -71 25 -253 31 -325
11z"/>
<path d="M885 2323 c-91 -12 -207 -72 -258 -133 -39 -45 -82 -134 -97 -199
-20 -86 -8 -285 25 -396 57 -195 139 -311 260 -371 55 -27 69 -29 170 -29 104
0 113 2 170 31 167 88 278 311 292 589 7 130 -5 198 -49 287 -86 170 -276 253
-513 221z"/>
<path d="M2076 1574 c-92 -80 -187 -114 -321 -114 -104 0 -177 18 -248 61 -26
16 -49 29 -51 29 -2 0 -11 -21 -21 -47 -9 -27 -28 -66 -41 -89 l-23 -41 42
-21 c23 -11 83 -35 132 -52 113 -40 161 -67 211 -122 77 -83 126 -229 163
-478 l18 -125 54 3 c80 4 328 56 459 96 160 48 165 55 157 201 -7 125 -39 318
-67 415 -26 87 -76 169 -125 201 -22 15 -78 40 -125 57 -47 17 -102 37 -122
46 -48 21 -46 21 -92 -20z"/>
<path d="M520 1289 c-25 -10 -82 -33 -127 -49 -187 -70 -251 -184 -303 -545
-32 -227 -26 -309 27 -357 45 -41 276 -106 532 -150 101 -17 166 -22 331 -22
223 0 333 14 581 73 209 50 285 84 316 144 44 86 -33 565 -113 704 -36 63
-106 118 -187 149 -40 14 -99 37 -132 50 l-59 23 -61 -58 c-98 -94 -212 -141
-344 -141 -138 0 -239 41 -342 138 -37 34 -68 62 -70 61 -2 -1 -24 -9 -49 -20z"/>
</g>
</svg>
