<?xml version="1.0" standalone="no"?>
<!DOCTYPE svg PUBLIC "-//W3C//DTD SVG 20010904//EN"
 "http://www.w3.org/TR/2001/REC-SVG-20010904/DTD/svg10.dtd">
<svg version="1.0" xmlns="http://www.w3.org/2000/svg"
 width="300.000000pt" height="300.000000pt" viewBox="0 0 300.000000 300.000000"
 preserveAspectRatio="xMidYMid meet">

<g transform="translate(0.000000,300.000000) scale(0.100000,-0.100000)"
stroke="none">
<path d="M575 2788 c-188 -35 -360 -205 -400 -395 -22 -100 -22 -1726 0 -1826
40 -189 203 -352 392 -392 101 -22 1765 -22 1866 0 189 40 352 203 392 392 12
55 15 195 15 743 l0 675 -75 1 -74 1 -3 -706 -3 -706 -34 -63 c-39 -72 -97
-129 -173 -169 l-53 -28 -925 0 -925 0 -63 34 c-72 39 -129 97 -169 173 l-28
53 0 905 0 905 34 63 c41 75 103 135 179 170 l57 27 698 5 698 5 2 73 2 72
-680 -1 c-380 -1 -702 -5 -730 -11z"/>
<path d="M2114 2787 c-3 -8 -4 -93 -2 -190 l3 -177 -190 -2 -190 -3 0 -170 0
-170 190 -5 190 -5 0 -185 0 -185 170 0 170 0 0 185 0 185 190 5 190 5 0 170
0 170 -190 5 -190 5 0 185 0 185 -168 3 c-134 2 -168 0 -173 -11z"/>
<path d="M540 2097 c-51 -26 -64 -90 -26 -134 l24 -28 512 0 512 0 25 29 c20
24 24 36 19 65 -3 19 -15 44 -26 55 -20 21 -31 21 -518 24 -386 1 -503 -1
-522 -11z"/>
<path d="M519 1651 c-38 -38 -38 -74 0 -112 l29 -29 677 0 677 0 29 29 c38 38
38 74 0 112 l-29 29 -677 0 -677 0 -29 -29z"/>
<path d="M540 1217 c-51 -26 -64 -90 -26 -134 l24 -28 917 0 917 0 25 29 c20
24 24 36 19 65 -3 19 -15 44 -26 55 -20 21 -27 21 -923 23 -711 2 -907 0 -927
-10z"/>
<path d="M540 777 c-51 -26 -64 -90 -26 -134 l24 -28 912 0 912 0 25 29 c20
24 24 36 19 65 -3 19 -15 44 -26 55 -20 21 -27 21 -918 23 -707 2 -902 0 -922
-10z"/>
</g>
</svg>
