<?xml version="1.0" standalone="no"?>
<!DOCTYPE svg PUBLIC "-//W3C//DTD SVG 20010904//EN"
 "http://www.w3.org/TR/2001/REC-SVG-20010904/DTD/svg10.dtd">
<svg version="1.0" xmlns="http://www.w3.org/2000/svg"
 width="300.000000pt" height="300.000000pt" viewBox="0 0 300.000000 300.000000"
 preserveAspectRatio="xMidYMid meet">

<g transform="translate(0.000000,300.000000) scale(0.100000,-0.100000)"
fill="" stroke="none">
<path d="M920 2903 c-28 -10 -40 -37 -40 -90 l0 -53 75 0 75 0 0 50 c0 76 -47
115 -110 93z"/>
<path d="M2046 2600 c-132 -94 -240 -171 -242 -173 -3 -3 481 -347 490 -347 3
0 6 46 6 102 l0 101 93 -6 c204 -13 299 -70 431 -257 18 -25 18 -24 12 53 -16
216 -98 357 -250 432 -67 33 -189 64 -258 65 l-28 0 0 100 c0 55 -3 100 -7
100 -5 -1 -116 -77 -247 -170z"/>
<path d="M334 2641 c-57 -14 -97 -53 -114 -111 l-9 -30 107 0 c126 0 156 -11
160 -57 5 -52 -23 -63 -155 -63 l-113 0 0 -65 0 -65 178 0 c144 0 182 -3 200
-16 25 -17 30 -65 9 -83 -9 -6 -83 -12 -198 -13 l-184 -3 -3 -67 -3 -68 181 0
c167 0 181 -1 200 -20 25 -25 25 -42 2 -69 -16 -20 -28 -21 -197 -23 l-180 -3
-3 -370 c-4 -428 -1 -455 60 -521 68 -73 73 -74 600 -74 l458 0 0 75 0 75
-493 0 c-430 0 -495 2 -515 16 -22 15 -22 16 -22 343 0 305 1 329 18 344 17
15 67 17 515 17 l497 0 0 43 c0 80 7 84 195 92 l165 7 0 300 c0 319 -1 328
-52 375 -12 11 -41 26 -62 32 -46 12 -1192 14 -1242 2z"/>
<path d="M1410 1325 l0 -515 640 0 640 0 0 515 0 515 -640 0 -640 0 0 -515z
m1150 0 l0 -385 -510 0 -510 0 0 385 0 385 510 0 510 0 0 -385z"/>
<path d="M1630 1495 l0 -135 415 0 415 0 0 135 0 135 -415 0 -415 0 0 -135z"/>
<path d="M1640 1130 l0 -110 105 0 105 0 0 110 0 110 -105 0 -105 0 0 -110z"/>
<path d="M1930 1130 l0 -110 105 0 105 0 0 110 0 110 -105 0 -105 0 0 -110z"/>
<path d="M2230 1130 l0 -110 105 0 105 0 0 110 0 110 -105 0 -105 0 0 -110z"/>
<path d="M410 1435 l0 -245 460 0 460 0 0 245 0 245 -460 0 -460 0 0 -245z"/>
<path d="M716 794 c-3 -9 -6 -45 -6 -80 l0 -64 245 0 245 0 0 80 0 80 -239 0
c-209 0 -240 -2 -245 -16z"/>
<path d="M877 533 c-4 -3 -7 -41 -7 -84 0 -72 2 -80 25 -95 24 -16 25 -19 27
-162 l3 -147 30 0 30 0 0 145 0 145 28 17 c26 17 27 21 27 103 l0 85 -78 0
c-43 0 -82 -3 -85 -7z"/>
</g>
</svg>
