<?xml version="1.0" standalone="no"?>
<!DOCTYPE svg PUBLIC "-//W3C//DTD SVG 20010904//EN"
 "http://www.w3.org/TR/2001/REC-SVG-20010904/DTD/svg10.dtd">
<svg version="1.0" xmlns="http://www.w3.org/2000/svg"
 width="300.000000pt" height="300.000000pt" viewBox="0 0 300.000000 300.000000"
 preserveAspectRatio="xMidYMid meet">

<g transform="translate(0.000000,300.000000) scale(0.100000,-0.100000)"
stroke="none">
<path d="M2631 2849 l-64 -61 134 -134 134 -134 62 62 c89 89 88 95 -39 224
-128 130 -135 132 -227 43z"/>
<path d="M523 2776 c-172 -56 -302 -193 -348 -367 -12 -45 -15 -202 -15 -929
0 -950 -1 -920 56 -1039 36 -74 151 -189 225 -225 119 -57 88 -56 1059 -56
971 0 940 -1 1059 56 74 36 189 151 225 225 56 117 56 106 56 857 l0 692 -75
0 -75 0 0 -673 c0 -747 0 -745 -65 -844 -41 -61 -106 -112 -179 -139 -49 -18
-91 -19 -946 -19 -855 0 -897 1 -946 19 -114 42 -199 135 -229 251 -23 89 -23
1701 0 1790 30 113 107 200 223 250 45 19 72 20 743 23 l697 3 0 74 0 75 -697
0 -696 -1 -72 -23z"/>
<path d="M2192 2417 l-312 -312 0 -138 0 -137 134 0 134 0 317 317 316 316
-133 134 c-73 73 -135 133 -138 133 -3 0 -146 -141 -318 -313z m341 180 c7
-18 -347 -372 -362 -363 -6 4 -11 12 -11 19 0 15 341 357 356 357 7 0 14 -6
17 -13z m-283 -532 c0 -6 -19 -30 -43 -53 -34 -33 -51 -43 -82 -45 l-39 -2 3
44 3 44 -42 -7 -43 -7 6 37 c5 27 20 52 54 86 l47 48 68 -67 c37 -37 68 -72
68 -78z"/>
<path d="M519 2081 c-20 -20 -29 -39 -29 -61 0 -22 9 -41 29 -61 l29 -29 502
0 502 0 29 29 c39 40 39 82 0 122 l-29 29 -502 0 -502 0 -29 -29z"/>
<path d="M515 1655 c-17 -16 -25 -35 -25 -60 0 -25 8 -44 25 -60 l24 -25 686
0 686 0 24 25 c34 33 34 87 0 120 l-24 25 -686 0 -686 0 -24 -25z"/>
<path d="M519 1201 c-20 -20 -29 -39 -29 -61 0 -22 9 -41 29 -61 l29 -29 907
0 907 0 29 29 c20 20 29 39 29 61 0 22 -9 41 -29 61 l-29 29 -907 0 -907 0
-29 -29z"/>
<path d="M519 761 c-20 -20 -29 -39 -29 -61 0 -22 9 -41 29 -61 l29 -29 902 0
902 0 29 29 c39 40 39 82 0 122 l-29 29 -902 0 -902 0 -29 -29z"/>
</g>
</svg>
