<?xml version="1.0" standalone="no"?>
<!DOCTYPE svg PUBLIC "-//W3C//DTD SVG 20010904//EN"
 "http://www.w3.org/TR/2001/REC-SVG-20010904/DTD/svg10.dtd">
<svg version="1.0" xmlns="http://www.w3.org/2000/svg"
 width="300.000000pt" height="300.000000pt" viewBox="0 0 300.000000 300.000000"
 preserveAspectRatio="xMidYMid meet">

<g transform="translate(0.000000,300.000000) scale(0.100000,-0.100000)"
stroke="none">
<path d="M335 2701 c-90 -22 -173 -90 -216 -176 l-24 -50 0 -785 0 -785 28
-57 c32 -65 89 -121 156 -152 44 -20 62 -21 449 -24 222 -2 402 -6 400 -10
-43 -81 -52 -112 -52 -177 -1 -117 51 -201 158 -258 38 -20 58 -22 238 -25
234 -4 279 5 352 69 71 63 91 107 91 209 0 74 -4 93 -27 137 l-27 52 427 3
427 3 57 28 c65 32 121 89 152 156 21 46 21 50 21 831 l0 785 -24 50 c-32 63
-92 124 -156 155 l-50 25 -1175 2 c-646 0 -1188 -2 -1205 -6z m2364 -97 c71
-21 125 -76 146 -147 14 -48 15 -146 13 -794 l-3 -740 -30 -49 c-19 -30 -49
-60 -79 -79 l-49 -30 -1177 0 -1177 0 -49 30 c-30 19 -60 49 -79 79 l-30 49
-3 740 c-3 835 -5 814 68 887 72 72 5 69 1266 69 995 1 1137 -1 1183 -15z"/>
<path d="M2471 2460 c-34 -28 -61 -54 -61 -58 1 -4 52 -60 113 -126 l113 -118
57 52 c80 73 78 82 -36 203 -50 53 -100 97 -109 97 -9 0 -44 -23 -77 -50z"/>
<path d="M2329 2322 c-23 -15 -240 -211 -433 -393 -39 -37 -83 -77 -98 -90
-26 -23 -27 -29 -30 -140 l-3 -116 74 -7 c41 -3 95 -6 121 -6 l47 0 249 231
c137 127 267 248 288 269 l39 39 -108 115 c-59 64 -110 116 -114 115 -3 0 -18
-8 -32 -17z m41 -97 c0 -7 -18 -28 -39 -47 -22 -18 -94 -84 -160 -146 -107
-100 -149 -126 -139 -88 5 20 318 307 328 301 6 -3 10 -12 10 -20z m-318 -391
l58 -60 -43 -42 c-34 -34 -50 -42 -79 -42 -36 0 -37 0 -31 35 6 35 5 35 -32
35 -37 0 -37 0 -31 32 7 34 73 111 91 106 5 -2 36 -30 67 -64z"/>
<path d="M428 2204 c-53 -28 -72 -98 -43 -154 31 -60 27 -60 560 -60 533 0
529 0 560 60 30 57 10 127 -45 155 -43 22 -991 22 -1032 -1z"/>
<path d="M428 1824 c-53 -28 -72 -98 -43 -154 31 -60 27 -60 560 -60 533 0
529 0 560 60 30 57 10 127 -45 155 -43 22 -991 22 -1032 -1z"/>
<path d="M423 1394 c-66 -33 -65 -116 2 -148 29 -14 136 -16 930 -16 794 0
901 2 930 16 68 32 68 116 0 148 -29 14 -135 16 -932 16 -793 0 -902 -2 -930
-16z"/>
<path d="M420 1052 c-66 -33 -64 -109 5 -138 52 -21 1808 -21 1860 0 69 29 71
105 5 138 -33 17 -98 18 -935 18 -837 0 -902 -1 -935 -18z"/>
</g>
</svg>
