<?xml version="1.0" standalone="no"?>
<!DOCTYPE svg PUBLIC "-//W3C//DTD SVG 20010904//EN"
 "http://www.w3.org/TR/2001/REC-SVG-20010904/DTD/svg10.dtd">
<svg version="1.0" xmlns="http://www.w3.org/2000/svg"
 width="300.000000pt" height="300.000000pt" viewBox="0 0 300.000000 300.000000"
 preserveAspectRatio="xMidYMid meet">

<g transform="translate(0.000000,300.000000) scale(0.100000,-0.100000)"
stroke="none">
<path d="M2261 2739 l-64 -61 134 -134 134 -134 62 62 c89 89 88 95 -39 224
-128 130 -135 132 -227 43z"/>
<path d="M1822 2307 l-312 -312 0 -138 0 -137 134 0 134 0 317 317 316 316
-133 134 c-73 73 -135 133 -138 133 -3 0 -146 -141 -318 -313z m341 180 c7
-18 -347 -372 -362 -363 -6 4 -11 12 -11 19 0 15 341 357 356 357 7 0 14 -6
17 -13z m-283 -532 c0 -6 -19 -30 -43 -53 -34 -33 -51 -43 -82 -45 l-39 -2 3
44 3 44 -42 -7 -43 -7 6 37 c5 27 20 52 54 86 l47 48 68 -67 c37 -37 68 -72
68 -78z"/>
<path d="M115 2131 c-16 -10 -39 -28 -50 -41 -20 -22 -20 -38 -23 -964 -2
-695 1 -948 9 -969 17 -41 57 -57 141 -57 121 0 148 35 148 195 l0 95 1165 0
1165 0 0 -95 c0 -159 27 -195 147 -195 146 0 153 13 153 284 l0 206 -745 2
-745 3 -32 33 c-33 32 -33 33 -36 142 l-4 110 -220 0 -220 0 -252 106 c-138
58 -279 118 -313 133 l-62 26 -3 451 -3 450 -25 37 c-44 65 -133 87 -195 48z"/>
<path d="M606 1645 c-183 -65 -235 -307 -97 -445 140 -140 378 -85 448 103 33
90 5 206 -67 277 -73 74 -187 100 -284 65z"/>
<path d="M2630 1469 c-131 -47 -245 -63 -440 -62 -141 0 -509 22 -577 34 -4 1
-32 1 -60 0 l-53 -1 0 -345 c0 -364 2 -384 47 -404 17 -8 232 -11 723 -11
l700 0 0 323 c0 292 -2 326 -19 362 -52 112 -181 154 -321 104z"/>
<path d="M1270 1441 c-166 -51 -260 -195 -260 -397 l0 -64 200 0 200 0 0 235
0 235 -57 -1 c-32 0 -69 -4 -83 -8z"/>
</g>
</svg>
