<?xml version="1.0" standalone="no"?>
<!DOCTYPE svg PUBLIC "-//W3C//DTD SVG 20010904//EN"
 "http://www.w3.org/TR/2001/REC-SVG-20010904/DTD/svg10.dtd">
<svg version="1.0" xmlns="http://www.w3.org/2000/svg"
 width="300.000000pt" height="300.000000pt" viewBox="0 0 300.000000 300.000000"
 preserveAspectRatio="xMidYMid meet">

<g transform="translate(0.000000,300.000000) scale(0.100000,-0.100000)"
stroke="none">
<path d="M2592 2768 c-13 -17 -46 -137 -39 -144 9 -9 280 -85 290 -81 6 2 19
32 29 67 24 86 14 102 -84 130 -40 12 -86 25 -102 31 -40 13 -82 11 -94 -3z"/>
<path d="M1613 2685 c-87 -24 -146 -57 -198 -110 -54 -53 -101 -140 -111 -205
-6 -38 -4 -41 48 -89 125 -115 170 -279 145 -541 l-8 -85 48 -32 c97 -64 231
-81 346 -42 108 36 179 105 242 234 59 119 85 223 92 365 6 129 -4 196 -42
279 -50 106 -127 176 -240 215 -69 25 -253 31 -322 11z"/>
<path d="M2505 2493 c-52 -182 -187 -639 -191 -645 -5 -8 71 -153 99 -192 13
-17 18 -16 108 35 52 29 97 57 100 62 6 9 33 99 170 576 21 74 37 136 35 138
-7 7 -270 82 -288 83 -12 0 -21 -17 -33 -57z m95 -39 c0 -9 -26 -103 -57 -210
-37 -127 -61 -194 -70 -194 -20 0 -16 23 27 175 22 77 47 164 55 193 10 32 21
52 30 52 8 0 15 -7 15 -16z m-80 -464 c36 -11 70 -22 77 -25 8 -3 8 -16 -3
-51 -15 -51 -28 -70 -55 -85 -15 -8 -21 -4 -34 22 -16 29 -17 30 -40 15 -32
-21 -34 -21 -46 10 -7 20 -5 41 6 80 9 30 19 54 23 54 4 0 36 -9 72 -20z"/>
<path d="M885 2323 c-91 -12 -207 -72 -258 -133 -39 -45 -82 -134 -97 -199
-20 -86 -8 -285 25 -396 57 -195 139 -311 260 -371 55 -27 69 -29 170 -29 104
0 113 2 170 31 167 88 278 311 292 589 7 130 -5 198 -49 287 -86 170 -276 253
-513 221z"/>
<path d="M2076 1574 c-92 -80 -187 -114 -321 -114 -104 0 -177 18 -248 61 -26
16 -49 29 -51 29 -2 0 -11 -21 -21 -47 -9 -27 -28 -66 -41 -89 l-23 -41 42
-21 c23 -11 83 -35 132 -53 115 -40 138 -52 191 -101 54 -50 86 -104 118 -200
24 -70 72 -310 78 -388 l3 -35 55 3 c80 4 328 56 460 96 160 48 165 55 157
201 -7 125 -39 318 -67 415 -26 87 -76 169 -125 201 -22 15 -78 40 -125 57
-47 17 -102 37 -122 46 -48 21 -46 21 -92 -20z"/>
<path d="M520 1289 c-25 -10 -82 -33 -127 -49 -187 -70 -251 -184 -303 -545
-32 -227 -26 -309 27 -357 45 -41 276 -106 532 -150 183 -32 484 -31 666 1
260 46 456 100 518 143 51 37 61 69 54 198 -7 128 -45 350 -77 450 -45 136
-112 210 -233 256 -40 14 -99 37 -132 50 l-59 23 -62 -60 c-90 -86 -184 -128
-300 -136 -164 -10 -271 28 -385 135 -37 34 -68 62 -70 61 -2 -1 -24 -9 -49
-20z"/>
</g>
</svg>
