<?xml version="1.0" standalone="no"?>
<!DOCTYPE svg PUBLIC "-//W3C//DTD SVG 20010904//EN"
 "http://www.w3.org/TR/2001/REC-SVG-20010904/DTD/svg10.dtd">
<svg version="1.0" xmlns="http://www.w3.org/2000/svg"
 width="300.000000pt" height="300.000000pt" viewBox="0 0 300.000000 300.000000"
 preserveAspectRatio="xMidYMid meet">

<g transform="translate(0.000000,300.000000) scale(0.100000,-0.100000)"
stroke="none">
<path d="M1240 2749 c-160 -24 -276 -86 -405 -214 -152 -151 -215 -304 -215
-520 0 -188 49 -330 160 -468 96 -120 219 -205 360 -249 64 -20 95 -23 215
-22 124 0 149 3 220 27 337 112 549 447 505 800 -22 179 -97 325 -234 454 -93
89 -183 141 -293 172 -88 24 -226 33 -313 20z"/>
<path d="M2668 2653 c-9 -10 -30 -43 -47 -75 l-32 -56 134 -76 c74 -42 142
-78 150 -82 11 -4 26 13 53 61 51 93 47 101 -91 181 -117 67 -143 75 -167 47z"/>
<path d="M2420 2228 c-73 -128 -163 -286 -200 -351 l-67 -118 30 -107 c16 -59
33 -111 37 -115 4 -5 59 6 122 23 l114 32 193 342 c106 187 193 346 193 351 1
6 -39 33 -88 60 -49 28 -114 65 -145 83 l-57 32 -132 -232z m185 107 c0 -6
-47 -94 -105 -197 -76 -135 -110 -188 -123 -188 -10 0 -17 6 -15 13 2 8 50 97
108 200 71 126 110 186 120 184 8 -1 15 -7 15 -12z m-128 -508 c18 -13 -33
-106 -65 -118 -39 -15 -52 -11 -52 16 0 31 -23 42 -56 27 -21 -10 -24 -9 -24
7 0 11 -2 25 -5 33 -3 7 9 37 26 66 l30 53 67 -37 c37 -20 73 -41 79 -47z"/>
<path d="M560 1383 c-137 -23 -268 -109 -352 -230 -50 -73 -114 -221 -144
-333 -43 -163 -34 -328 27 -470 26 -61 102 -133 175 -167 116 -53 144 -54
1131 -51 l908 3 66 22 c93 32 183 93 218 148 78 123 98 345 47 530 -14 55 -51
151 -82 213 -44 92 -67 125 -122 180 -76 77 -158 124 -253 147 -122 28 -141
24 -275 -61 -139 -90 -211 -125 -328 -159 -119 -34 -238 -41 -354 -21 -157 27
-257 72 -469 209 -73 48 -106 55 -193 40z"/>
</g>
</svg>
