<?xml version="1.0" standalone="no"?>
<!DOCTYPE svg PUBLIC "-//W3C//DTD SVG 20010904//EN"
 "http://www.w3.org/TR/2001/REC-SVG-20010904/DTD/svg10.dtd">
<svg version="1.0" xmlns="http://www.w3.org/2000/svg"
 width="300.000000pt" height="300.000000pt" viewBox="0 0 300.000000 300.000000"
 preserveAspectRatio="xMidYMid meet">

<g transform="translate(0.000000,300.000000) scale(0.100000,-0.100000)"
stroke="none">
<path d="M1199 2702 c-42 -21 -61 -40 -86 -82 l-33 -54 0 -256 0 -255 28 -50
c15 -28 45 -62 70 -80 42 -29 48 -30 173 -34 l129 -3 0 -124 0 -123 -412 -3
c-402 -3 -414 -4 -454 -25 -59 -31 -110 -93 -128 -154 -10 -32 -16 -91 -16
-151 l0 -98 -102 0 c-122 0 -166 -16 -220 -79 -55 -64 -60 -96 -56 -361 3
-220 4 -238 25 -277 27 -50 86 -100 133 -113 50 -14 509 -13 551 1 52 18 96
55 126 107 l28 47 0 255 c0 242 -1 257 -22 295 -52 98 -110 125 -264 125
l-111 0 4 108 c4 120 17 156 70 194 l33 23 408 3 407 3 0 -156 0 -155 -118 0
c-109 0 -123 -2 -173 -28 -43 -21 -61 -39 -86 -82 l-33 -54 0 -256 0 -255 30
-52 c60 -105 90 -113 405 -113 l253 0 53 28 c39 20 62 41 84 77 l30 48 3 257
3 256 -28 54 c-21 40 -42 63 -78 85 -45 28 -57 30 -157 33 l-108 4 0 154 0
155 398 -3 397 -3 33 -23 c52 -37 65 -74 70 -189 l4 -103 -94 0 c-142 0 -202
-28 -255 -118 l-28 -47 0 -255 c0 -242 1 -257 22 -295 27 -51 68 -90 115 -109
31 -13 85 -16 293 -16 286 0 301 3 367 67 63 62 70 98 66 370 -3 223 -4 241
-25 280 -27 51 -82 96 -132 112 -21 6 -84 11 -140 11 l-101 0 0 93 c0 55 -6
115 -16 146 -18 61 -69 123 -128 154 -40 21 -52 22 -443 25 l-403 3 0 124 0
125 103 0 c93 0 109 3 158 28 40 20 61 39 84 76 l30 49 3 241 c2 133 1 255 -3
272 -10 56 -62 120 -117 148 -52 26 -53 26 -309 26 l-257 0 -53 -28z"/>
</g>
</svg>
