<?xml version="1.0" standalone="no"?>
<!DOCTYPE svg PUBLIC "-//W3C//DTD SVG 20010904//EN"
 "http://www.w3.org/TR/2001/REC-SVG-20010904/DTD/svg10.dtd">
<svg version="1.0" xmlns="http://www.w3.org/2000/svg"
 width="450.000000pt" height="450.000000pt" viewBox="0 0 450.000000 450.000000"
 preserveAspectRatio="xMidYMid meet">

<g transform="translate(0.000000,450.000000) scale(0.100000,-0.100000)"
stroke="none">
<path d="M1950 4425 c-360 -34 -566 -87 -706 -180 -65 -43 -89 -76 -89 -128 0
-35 7 -45 50 -85 141 -128 480 -208 935 -219 433 -11 807 40 1021 139 447 207
-11 465 -856 483 -136 3 -261 -1 -355 -10z"/>
<path d="M1150 3805 c0 -203 9 -237 71 -290 144 -121 568 -205 1038 -205 566
0 1041 132 1074 299 10 46 9 361 0 361 -5 0 -24 -17 -43 -37 -128 -133 -554
-225 -1040 -225 -311 0 -557 29 -761 87 -146 42 -230 83 -291 143 l-48 46 0
-179z"/>
<path d="M3291 3439 c-87 -101 -369 -186 -726 -219 -142 -13 -514 -13 -646 0
-347 35 -618 115 -723 213 -21 20 -40 37 -42 37 -2 0 -4 -78 -4 -172 1 -235
12 -259 155 -331 114 -58 279 -101 515 -134 158 -22 649 -25 810 -5 266 33
500 97 599 163 99 66 104 79 109 301 3 105 1 188 -4 187 -5 0 -24 -19 -43 -40z"/>
<path d="M1150 2820 c0 -188 7 -229 42 -268 34 -36 183 -107 296 -141 405
-120 1090 -120 1519 0 184 52 311 133 326 209 11 55 8 360 -3 360 -6 0 -13 -7
-17 -15 -19 -52 -255 -150 -457 -189 -230 -46 -297 -51 -621 -51 -330 0 -396
6 -659 61 -200 42 -298 85 -383 167 l-43 41 0 -174z"/>
<path d="M1150 2320 c0 -222 4 -234 92 -290 181 -115 389 -163 851 -196 l88
-6 -3 -56 -3 -57 -555 -5 -555 -5 -58 -27 c-69 -33 -151 -114 -183 -183 -35
-75 -45 -138 -42 -271 l3 -119 72 -3 71 -3 4 148 c4 166 15 202 81 260 72 63
78 63 647 61 l515 -3 3 -233 2 -233 71 3 70 3 2 230 2 230 515 3 c569 2 575 2
647 -61 66 -58 77 -94 81 -260 l4 -148 71 3 72 3 0 155 0 155 -34 73 c-40 86
-105 151 -189 190 l-57 27 -550 3 c-420 2 -551 5 -557 15 -4 6 -8 33 -8 59 l0
46 98 6 c466 31 809 127 891 250 25 39 26 44 29 230 l3 191 -43 -41 c-52 -50
-92 -71 -228 -119 -110 -38 -268 -74 -430 -96 -126 -18 -637 -18 -780 -1 -230
29 -459 86 -573 143 -20 11 -58 40 -84 64 -26 25 -48 45 -50 45 -2 0 -3 -81
-3 -180z"/>
<path d="M454 921 c-50 -23 -107 -88 -122 -140 -8 -24 -12 -122 -12 -267 0
-220 1 -231 24 -279 28 -60 56 -87 116 -114 43 -19 64 -21 400 -21 400 0 401
1 473 76 61 64 69 107 65 372 l-3 229 -30 49 c-17 26 -50 62 -74 79 l-43 30
-376 2 c-349 3 -380 2 -418 -16z"/>
<path d="M1850 924 c-45 -20 -86 -59 -113 -109 -20 -37 -22 -57 -25 -271 -2
-143 1 -247 7 -271 17 -64 66 -121 124 -149 52 -24 52 -24 407 -24 336 0 357
2 400 21 56 25 86 53 113 104 20 37 22 57 25 279 4 266 -1 295 -62 364 -62 71
-67 72 -476 71 -304 0 -371 -2 -400 -15z"/>
<path d="M3243 925 c-17 -7 -49 -31 -72 -54 -62 -62 -71 -106 -71 -351 0 -246
8 -284 72 -347 75 -73 73 -73 470 -73 334 0 355 2 398 21 58 26 87 53 116 111
23 46 24 53 24 290 0 271 -5 292 -71 355 -66 62 -71 63 -471 63 -286 -1 -370
-4 -395 -15z"/>
</g>
</svg>
