<?xml version="1.0" standalone="no"?>
<!DOCTYPE svg PUBLIC "-//W3C//DTD SVG 20010904//EN"
 "http://www.w3.org/TR/2001/REC-SVG-20010904/DTD/svg10.dtd">
<svg version="1.0" xmlns="http://www.w3.org/2000/svg"
 width="450.000000pt" height="450.000000pt" viewBox="0 0 450.000000 450.000000"
 preserveAspectRatio="xMidYMid meet">
<metadata>
Created by potrace 1.16, written by Peter Selinger 2001-2019
</metadata>
<g transform="translate(0.000000,450.000000) scale(0.100000,-0.100000)"
fill="#000000" stroke="none">
<path d="M1807 4145 c-234 -44 -421 -148 -598 -332 -217 -225 -309 -456 -309
-773 0 -318 108 -573 341 -801 278 -274 671 -377 1062 -279 102 26 281 113
367 179 93 70 227 213 288 305 104 159 160 342 169 551 14 339 -104 628 -353
864 -139 133 -299 221 -494 273 -101 27 -360 34 -473 13z"/>
<path d="M3550 3515 l0 -365 -146 0 c-87 0 -144 -4 -142 -9 7 -20 554 -660
564 -660 12 -1 574 647 574 661 0 4 -65 8 -145 8 l-145 0 0 365 0 365 -280 0
-280 0 0 -365z"/>
<path d="M800 2105 c-277 -57 -470 -217 -614 -510 -94 -191 -166 -456 -166
-613 0 -195 61 -423 141 -523 72 -91 233 -179 384 -210 85 -18 164 -19 1467
-19 1485 0 1441 -1 1590 53 235 86 338 222 388 515 28 159 26 242 -10 395
-124 537 -374 839 -758 913 -41 8 -102 14 -137 14 l-63 0 -173 -111 c-196
-126 -292 -175 -441 -223 -154 -50 -226 -61 -393 -61 -171 0 -239 11 -405 65
-144 47 -228 89 -401 201 -196 126 -203 129 -279 128 -36 0 -94 -7 -130 -14z"/>
</g>
</svg>
