<?xml version="1.0" standalone="no"?>
<!DOCTYPE svg PUBLIC "-//W3C//DTD SVG 20010904//EN"
 "http://www.w3.org/TR/2001/REC-SVG-20010904/DTD/svg10.dtd">
<svg version="1.0" xmlns="http://www.w3.org/2000/svg"
 width="300.000000pt" height="300.000000pt" viewBox="0 0 300.000000 300.000000"
 preserveAspectRatio="xMidYMid meet">
<metadata>
Created by potrace 1.16, written by Peter Selinger 2001-2019
</metadata>
<g transform="translate(0.000000,300.000000) scale(0.100000,-0.100000)"
stroke="none">
<path d="M1410 2953 c-14 -2 -70 -15 -125 -30 -77 -20 -150 -51 -320 -138
-306 -156 -392 -182 -620 -185 -65 -1 -123 -4 -128 -7 -10 -6 -3 -389 8 -468
3 -22 12 -92 21 -155 65 -485 234 -917 497 -1272 186 -252 467 -492 710 -609
l89 -42 76 37 c650 319 1109 1034 1222 1901 6 50 14 104 16 120 3 17 8 135 11
263 l6 232 -109 1 c-165 2 -211 7 -308 35 -106 30 -164 56 -356 158 -155 83
-302 138 -414 156 -62 10 -212 11 -276 3z m253 -248 c72 -9 188 -55 359 -143
84 -43 189 -91 233 -106 44 -16 87 -31 95 -33 8 -3 22 -7 30 -8 8 -1 65 -13
127 -26 l112 -24 -5 -100 c-28 -557 -201 -1073 -483 -1444 -136 -178 -344
-367 -505 -460 l-77 -44 -42 19 c-220 99 -514 394 -695 697 -134 226 -260 579
-297 832 -3 23 -8 52 -10 65 -9 42 -33 270 -39 356 l-5 81 72 13 c205 35 310
72 557 196 184 92 262 121 347 129 31 3 59 7 60 9 4 4 106 -2 166 -9z"/>
<path d="M1510 2233 c-134 -20 -238 -90 -294 -200 -32 -63 -47 -156 -35 -215
23 -107 90 -204 187 -268 21 -14 22 -18 12 -75 -5 -33 -12 -80 -15 -105 -6
-44 -8 -59 -21 -130 -3 -19 -6 -42 -6 -50 0 -8 -9 -72 -19 -142 -10 -70 -19
-131 -19 -137 0 -8 77 -11 240 -11 236 0 240 0 240 21 0 11 -9 78 -20 149 -11
71 -19 133 -18 137 1 5 -1 22 -5 38 -3 17 -9 55 -12 85 -5 48 -19 136 -30 192
-2 12 13 28 46 49 180 115 214 370 72 539 -68 81 -207 138 -303 123z"/>
</g>
</svg>
