<?xml version="1.0" standalone="no"?>
<!DOCTYPE svg PUBLIC "-//W3C//DTD SVG 20010904//EN"
 "http://www.w3.org/TR/2001/REC-SVG-20010904/DTD/svg10.dtd">
<svg version="1.0" xmlns="http://www.w3.org/2000/svg"
 width="300.000000pt" height="300.000000pt" viewBox="0 0 300.000000 300.000000"
 preserveAspectRatio="xMidYMid meet">
<metadata>
Created by potrace 1.16, written by Peter Selinger 2001-2019
</metadata>
<g transform="translate(0.000000,300.000000) scale(0.100000,-0.100000)"
stroke="none">
<path d="M1584 2917 c-3 -8 -1 -39 4 -70 l9 -57 -267 0 c-250 0 -269 -1 -292
-19 -15 -13 -33 -18 -46 -14 -23 6 -24 4 -24 -37 -1 -53 2 -66 11 -51 7 10 9
7 8 -11 -2 -18 -6 -24 -17 -20 -8 3 -11 1 -7 -4 13 -13 89 -15 81 -2 -5 8 -1
9 10 5 10 -4 58 -7 107 -7 l89 0 0 -41 c0 -40 -1 -41 -29 -37 -17 2 -28 1 -25
-4 8 -12 -10 -10 -24 4 -6 6 -15 8 -19 4 -4 -4 -2 -11 6 -15 10 -6 8 -10 -6
-16 -10 -4 -26 -9 -35 -10 -10 -1 -21 -5 -24 -8 -11 -10 -13 -67 -3 -73 5 -3
9 11 9 31 0 20 3 34 8 32 4 -3 5 -90 4 -194 -3 -113 -7 -180 -12 -168 -8 17
-9 18 -9 2 -1 -10 5 -20 13 -23 14 -6 32 -36 18 -31 -4 1 -8 -2 -9 -8 -2 -5 8
-10 21 -10 13 0 28 -4 33 -9 5 -5 3 -6 -4 -2 -9 5 -13 -1 -13 -18 0 -30 7 -32
38 -11 16 12 27 13 41 5 18 -9 20 -23 23 -155 2 -111 0 -149 -10 -159 -11 -11
-3 -14 47 -19 81 -7 98 -1 103 33 3 17 0 28 -6 27 -12 -2 -28 151 -24 233 l3
55 40 5 c47 6 65 16 88 50 24 35 25 345 1 391 -16 32 -66 59 -109 59 -23 0
-25 4 -25 40 l0 40 119 0 119 0 1 -506 c1 -278 -1 -543 -5 -590 l-7 -84 -43 0
-44 0 0 -364 c0 -310 2 -365 15 -376 8 -7 12 -16 9 -21 -3 -5 -2 -18 1 -29 5
-15 11 -18 23 -11 9 4 23 6 31 3 9 -3 11 0 7 7 -4 6 -15 10 -23 9 -9 -2 -18 2
-19 7 -3 7 238 9 711 7 l715 -2 0 331 c0 208 -4 337 -10 350 -6 10 -7 19 -3
19 4 0 9 29 11 65 3 63 2 65 -21 65 -13 0 -34 -12 -46 -27 -18 -20 -20 -25 -6
-20 9 4 19 7 21 7 2 0 4 7 4 15 0 8 5 15 10 15 15 0 12 -19 -8 -40 -17 -18
-18 -18 -57 6 -39 23 -42 34 -4 14 15 -8 19 -7 19 4 0 8 6 17 13 19 11 5 -2 7
-63 11 -35 2 -48 -6 -24 -15 10 -4 -6 -6 -36 -3 -40 4 -73 0 -119 -15 -64 -20
-87 -20 -75 1 5 8 1 9 -10 5 -9 -4 -27 0 -39 7 -23 15 -127 11 -127 -5 0 -4
16 -13 34 -20 19 -7 32 -17 29 -22 -6 -10 39 2 47 12 3 4 19 4 35 1 27 -5 25
-7 -25 -17 -36 -8 -70 -9 -100 -4 -28 6 -51 6 -60 -1 -13 -8 -13 -9 1 -5 9 3
31 2 50 -2 26 -6 9 -10 -76 -16 -103 -7 -323 -2 -497 12 l-77 6 -1 600 0 600
63 -6 c52 -5 69 -2 95 13 18 11 32 27 32 35 0 9 -4 13 -10 10 -5 -3 -10 -2
-10 4 0 5 -3 18 -6 28 -6 17 -6 17 8 -1 19 -25 26 -7 20 52 l-4 42 -54 -1
c-29 -1 -51 -6 -48 -11 3 -4 -16 -8 -41 -8 l-47 0 4 70 c5 64 3 70 -14 70 -12
0 -17 -4 -12 -12 6 -10 4 -10 -7 0 -18 17 -138 16 -145 -1z m-216 -487 l32 0
0 -87 0 -88 -90 3 -90 3 0 84 0 84 38 4 c20 2 46 3 57 1 11 -2 35 -4 53 -4z"/>
<path d="M40 2144 c0 -27 4 -43 10 -39 6 3 10 1 10 -4 0 -6 -4 -11 -10 -11 -6
0 -10 -351 -10 -995 l0 -995 20 0 c14 0 19 4 14 13 -6 9 -4 9 8 -1 12 -9 51
-12 140 -11 l124 2 2 34 c2 25 -1 33 -9 27 -7 -4 -9 -3 -6 3 3 5 7 57 8 116
l2 107 1148 0 1147 0 -5 -32 c-2 -17 -9 -42 -14 -55 -6 -16 -5 -22 1 -18 10 6
13 -30 10 -112 -1 -24 2 -43 7 -43 5 0 8 17 7 38 -1 20 3 43 8 49 6 7 8 49 6
93 -3 44 -1 80 4 80 13 0 10 -204 -4 -218 -14 -14 -7 -22 19 -26 10 -2 18 -11
18 -22 0 -17 10 -19 109 -22 98 -3 110 -1 130 18 17 15 23 17 23 6 0 -8 -4
-13 -8 -10 -4 2 -10 0 -14 -6 -3 -5 3 -10 14 -10 21 0 21 4 21 244 l0 244 -32
5 c-18 2 -247 3 -508 0 -261 -2 -584 -1 -717 4 -229 8 -244 9 -264 30 -21 20
-19 50 3 37 6 -4 8 3 6 17 -1 12 -9 25 -17 27 -10 3 -12 0 -8 -11 3 -9 2 -19
-3 -22 -6 -4 -10 38 -10 107 l0 113 -232 -3 -231 -3 -89 38 c-83 35 -89 40
-86 63 4 24 1 26 -39 26 -34 1 -41 -2 -32 -12 9 -11 6 -12 -20 -3 -17 6 -31
15 -31 21 0 5 -4 6 -10 3 -5 -3 -22 1 -37 9 l-28 15 27 -1 c15 -1 24 -6 21
-11 -3 -5 0 -8 8 -5 8 3 14 13 14 23 0 23 -55 41 -67 22 -4 -7 -8 -8 -8 -3 0
5 -6 3 -14 -3 -11 -9 -26 -6 -67 14 -49 23 -52 28 -6 10 13 -6 16 -3 11 9 -3
9 -1 16 5 16 6 0 10 -5 8 -11 -1 -6 3 -13 8 -15 6 -2 11 5 12 16 1 11 -4 20
-10 20 -7 0 -6 4 3 10 13 9 12 12 -4 25 -10 8 -23 12 -29 8 -6 -3 -7 -1 -3 6
8 12 11 11 66 -28 19 -13 26 -21 15 -17 -18 7 -18 5 3 -14 12 -12 30 -19 40
-17 16 4 16 5 0 6 -10 0 -18 5 -18 11 0 10 43 4 90 -12 20 -6 18 -7 -12 -4
-27 3 -36 1 -32 -9 3 -8 19 -12 42 -10 56 4 58 5 43 14 -15 10 -8 15 32 25 19
4 26 3 22 -4 -3 -5 -13 -10 -21 -10 -8 0 -14 -7 -14 -15 0 -13 14 -14 88 -6 6
0 12 6 12 12 0 6 -6 9 -13 6 -8 -3 -20 -1 -28 4 -12 7 -12 9 1 9 13 0 13 1 0
10 -13 8 -13 10 1 10 9 0 40 21 68 46 28 25 49 39 46 31 -4 -10 0 -14 16 -13
22 1 41 26 19 26 -6 0 -8 -5 -4 -12 5 -7 3 -8 -6 -3 -10 6 -10 11 3 20 10 7
17 18 17 25 0 9 -6 8 -20 -5 -19 -17 -19 -17 -7 8 6 14 15 23 18 21 7 -4 7 -1
10 108 1 37 5 65 10 62 5 -3 9 0 9 5 0 6 -6 11 -14 11 -16 0 -29 37 -16 45 11
7 -9 65 -22 65 -5 0 -6 -9 -3 -21 5 -15 -4 -10 -35 20 -26 25 -39 45 -34 53 5
10 4 10 -6 1 -9 -8 -20 -6 -46 9 -19 11 -34 24 -34 30 0 5 7 2 16 -6 8 -9 20
-16 25 -16 5 0 12 0 16 0 4 0 8 11 9 25 1 20 -3 24 -20 20 -41 -9 -96 -12 -96
-5 0 4 -12 8 -26 8 -35 0 -17 -16 31 -26 35 -7 31 -8 -35 -8 -47 0 -66 2 -50
7 23 6 22 7 -9 8 -24 1 -32 -3 -28 -12 3 -8 -7 -18 -27 -25 l-31 -12 25 20
c14 11 20 20 13 20 -23 0 -43 -13 -44 -29 0 -9 -3 -11 -5 -5 -3 7 -14 10 -24
7 -19 -5 -25 -16 -21 -36 1 -5 -3 -6 -9 -2 -5 3 -15 -6 -21 -22 -8 -22 -12
-24 -19 -13 -8 12 -10 11 -11 -5 l0 -20 -9 20 c-11 24 -10 26 -14 -60 -4 -69
-4 -69 10 -35 13 32 14 33 8 5 -14 -68 -20 -134 -12 -129 4 3 8 -2 8 -11 0 -9
-5 -13 -11 -10 -7 5 -9 -15 -8 -59 2 -54 5 -66 18 -65 39 4 46 -1 47 -35 1
-48 -26 -59 -86 -36 l-45 18 -5 457 c-3 251 -2 459 3 462 4 2 7 17 7 34 0 26
-3 29 -31 29 -17 0 -28 -4 -24 -10 10 -16 -1 -11 -16 7 -11 13 -11 15 -1 9 10
-6 12 -1 9 21 -3 23 -9 28 -30 28 -15 1 -29 -5 -31 -12 -3 -7 1 -13 9 -13 7 0
17 -4 20 -10 4 -7 -3 -7 -20 0 -40 15 -67 12 -118 -14 -26 -13 -43 -18 -37
-11 18 21 76 45 109 45 17 0 31 4 31 8 0 4 -41 9 -90 10 l-90 2 0 -46z"/>
<path d="M1326 1454 c-44 -7 -84 -10 -90 -7 -5 3 -6 1 -3 -4 4 -6 -6 -15 -21
-21 -16 -5 -45 -24 -64 -41 -20 -17 -40 -31 -44 -31 -5 0 1 8 14 18 l23 18
-25 -1 c-32 0 -40 -9 -27 -33 15 -29 -4 -44 -38 -29 -14 6 -29 16 -33 22 -5 6
-8 3 -8 -7 0 -10 4 -18 9 -18 5 0 7 -21 5 -47 -2 -34 -1 -43 6 -33 6 9 10 10
10 3 0 -6 -7 -19 -16 -27 -8 -9 -13 -20 -10 -25 3 -5 -5 -12 -19 -15 -14 -4
-25 -11 -25 -16 0 -13 13 -13 27 1 7 7 11 -16 12 -82 1 -51 -1 -90 -6 -86 -4
4 -7 27 -7 50 l1 42 -4 -38 c-3 -25 -8 -37 -16 -34 -17 6 -17 -34 0 -51 11
-11 13 -10 14 5 0 10 2 14 5 8 2 -6 75 -9 199 -7 107 2 210 -1 230 -7 35 -9
35 -9 35 23 0 22 -5 33 -15 33 -8 0 -12 -4 -9 -9 3 -4 0 -8 -5 -8 -8 0 -11 75
-11 229 0 127 -3 232 -7 234 -5 2 -44 -2 -87 -9z"/>
</g>
</svg>
