<?xml version="1.0" standalone="no"?>
<!DOCTYPE svg PUBLIC "-//W3C//DTD SVG 20010904//EN"
 "http://www.w3.org/TR/2001/REC-SVG-20010904/DTD/svg10.dtd">
<svg version="1.0" xmlns="http://www.w3.org/2000/svg"
 width="300.000000pt" height="300.000000pt" viewBox="0 0 300.000000 300.000000"
 preserveAspectRatio="xMidYMid meet">

<g transform="translate(0.000000,300.000000) scale(0.100000,-0.100000)" stroke="none">
<path d="M553 2929 c-198 -34 -356 -178 -420 -384 -17 -57 -18 -116 -18 -1040
0 -924 1 -983 18 -1040 55 -176 173 -303 340 -364 l72 -26 955 0 955 0 72 26
c167 61 285 188 340 364 17 57 18 116 18 1040 0 924 -1 983 -18 1040 -55 176
-173 303 -340 364 l-72 26 -925 2 c-509 0 -948 -3 -977 -8z m1959 -176 c109
-51 182 -139 212 -258 14 -51 16 -181 16 -990 0 -809 -2 -939 -16 -990 -30
-119 -103 -207 -212 -258 l-67 -32 -945 0 -945 0 -67 32 c-109 51 -182 139
-212 258 -14 51 -16 181 -16 990 0 1014 -1 995 57 1094 51 87 145 157 240 180
21 5 445 9 963 8 l925 -2 67 -32z"/>
<path d="M2515 2385 c-121 -84 -254 -244 -343 -414 -36 -68 -51 -88 -59 -79
-6 7 -31 53 -58 101 l-47 88 -42 -24 c-22 -13 -71 -42 -108 -63 l-67 -38 47
-26 c79 -43 136 -86 220 -165 l80 -75 27 43 c86 130 293 342 378 387 45 24 47
27 40 55 -5 17 -7 78 -7 138 1 59 -2 107 -5 106 -3 0 -28 -16 -56 -34z"/>
<path d="M553 2303 c-32 -6 -79 -56 -86 -90 -14 -72 33 -137 106 -148 23 -3
285 -5 582 -3 496 3 542 4 566 21 71 48 71 156 0 204 -24 17 -70 18 -586 19
-308 1 -570 0 -582 -3z"/>
<path d="M556 1790 c-39 -12 -73 -46 -87 -87 -9 -27 -7 -39 8 -70 10 -20 31
-46 46 -57 28 -21 38 -21 647 -21 609 0 619 0 647 21 15 11 36 37 46 57 15 31
17 43 8 70 -14 43 -48 75 -92 87 -42 12 -1182 12 -1223 0z"/>
<path d="M597 1359 c-84 -20 -131 -61 -131 -114 0 -44 32 -79 93 -102 43 -17
109 -18 971 -18 862 0 928 1 971 18 61 23 93 58 93 102 0 42 -25 71 -84 99
-45 21 -52 21 -960 23 -517 1 -931 -3 -953 -8z"/>
<path d="M597 899 c-84 -20 -131 -61 -131 -114 0 -44 32 -79 93 -102 43 -17
109 -18 971 -18 862 0 928 1 971 18 61 23 93 58 93 102 0 42 -25 71 -84 99
-45 21 -52 21 -960 23 -517 1 -931 -3 -953 -8z"/>
</g>
</svg>
