<?xml version="1.0" standalone="no"?>
<!DOCTYPE svg PUBLIC "-//W3C//DTD SVG 20010904//EN"
 "http://www.w3.org/TR/2001/REC-SVG-20010904/DTD/svg10.dtd">
<svg version="1.0" xmlns="http://www.w3.org/2000/svg"
 width="300.000000pt" height="300.000000pt" viewBox="0 0 300.000000 300.000000"
 preserveAspectRatio="xMidYMid meet">

<g transform="translate(0.000000,300.000000) scale(0.100000,-0.100000)"
stroke="none">
<path d="M370 2761 c-48 -15 -87 -40 -123 -80 -70 -77 -67 -28 -67 -1176 0
-1150 -3 -1098 68 -1177 20 -23 60 -52 87 -64 l50 -24 734 0 c583 0 732 3 728
13 -11 24 -54 132 -60 150 -6 16 -48 17 -696 17 l-690 0 -20 26 c-21 27 -21
30 -21 1059 0 1029 0 1032 21 1059 l20 26 1099 0 1099 0 20 -26 c21 -26 21
-35 21 -653 l0 -626 73 -26 c39 -14 80 -29 90 -33 16 -8 17 27 17 651 0 736 1
729 -67 804 -20 22 -55 50 -77 62 l-41 22 -1120 2 c-616 1 -1131 -2 -1145 -6z"/>
<path d="M844 2371 c-59 -27 -96 -80 -102 -146 -6 -69 11 -117 53 -154 87 -76
206 -60 272 38 18 26 23 48 23 93 0 87 -34 140 -112 173 -49 20 -84 19 -134
-4z"/>
<path d="M1873 2329 c-25 -9 -28 -16 -13 -39 8 -13 -5 -16 -93 -20 -96 -5
-102 -6 -105 -27 -3 -20 1 -23 35 -23 37 0 39 -2 56 -49 9 -27 33 -73 52 -102
20 -28 34 -53 33 -54 -10 -9 -110 -54 -140 -64 -37 -12 -37 -13 -22 -36 l16
-24 51 20 c29 11 71 32 95 45 l43 26 64 -34 c68 -35 69 -35 79 -2 5 17 -2 24
-44 44 -27 13 -50 25 -50 27 0 3 15 25 32 51 18 26 40 70 50 97 15 47 19 50
53 53 31 3 36 7 33 25 -3 20 -9 22 -90 25 l-87 3 -6 29 c-8 36 -14 40 -42 29z
m97 -121 c0 -17 -44 -107 -65 -133 -12 -15 -19 -17 -33 -9 -21 14 -84 132 -76
145 9 15 174 11 174 -3z"/>
<path d="M2074 1968 c-43 -110 -80 -205 -82 -210 -2 -4 10 -8 28 -8 28 0 33 5
56 55 l24 56 91 -3 91 -3 20 -52 c18 -50 21 -53 54 -53 l34 0 -13 33 c-7 17
-44 112 -83 209 l-69 178 -36 0 -36 0 -79 -202z m151 40 c17 -45 32 -86 33
-90 2 -4 -29 -8 -68 -8 -39 0 -70 4 -68 8 2 4 16 45 33 90 16 45 32 82 35 82
3 0 19 -37 35 -82z"/>
<path d="M742 1964 c-61 -30 -98 -74 -118 -140 -21 -72 -18 -101 13 -121 24
-16 55 -18 278 -18 228 0 254 2 279 19 27 17 28 21 23 73 -10 93 -72 173 -156
202 -19 6 -86 11 -151 11 -105 0 -121 -2 -168 -26z"/>
<path d="M2260 1268 c-6 -40 -12 -79 -13 -87 -2 -15 -5 -16 -80 -50 l-47 -21
-69 50 c-38 28 -73 50 -78 50 -5 0 -31 -22 -58 -50 l-49 -50 52 -74 51 -75
-26 -58 c-14 -32 -27 -59 -28 -61 -2 -2 -162 -32 -172 -32 -2 0 -3 -33 -3 -74
0 -85 -8 -78 107 -96 71 -11 72 -12 84 -48 6 -20 18 -47 25 -60 14 -21 11 -27
-38 -97 l-52 -75 49 -50 c27 -28 53 -50 58 -50 5 0 39 21 75 46 63 44 69 46
97 34 16 -6 45 -17 62 -23 36 -11 37 -12 53 -115 l12 -73 76 3 77 3 15 84 15
83 60 28 60 27 76 -53 76 -52 54 54 53 54 -20 27 c-12 16 -35 48 -52 73 l-32
45 24 60 c27 65 18 60 149 85 l57 11 0 74 0 73 -67 11 c-113 19 -123 22 -123
37 0 7 -10 34 -22 59 l-22 45 20 27 c11 16 35 49 54 76 l34 48 -49 49 c-27 28
-53 50 -58 50 -5 0 -40 -22 -78 -49 l-69 -48 -63 25 -64 25 -14 86 -14 86 -77
3 -76 3 -12 -73z m191 -351 c127 -67 147 -247 38 -340 -84 -72 -196 -74 -275
-5 -56 49 -77 100 -72 174 7 116 91 194 208 194 40 0 70 -7 101 -23z"/>
<path d="M746 1298 c-22 -31 -20 -84 4 -108 24 -24 29 -24 58 -4 17 12 22 25
22 59 0 69 -51 101 -84 53z"/>
<path d="M1046 1304 c-25 -25 -21 -99 6 -118 29 -20 34 -20 58 4 24 24 26 77
4 108 -18 26 -46 28 -68 6z"/>
<path d="M632 1234 c-22 -15 -22 -17 -22 -299 0 -244 2 -286 16 -299 13 -13
42 -16 164 -16 l150 0 -12 25 c-11 25 -12 25 -140 25 l-128 0 0 205 0 205 270
0 270 0 0 -60 c0 -48 4 -61 19 -70 11 -5 22 -10 25 -10 3 0 6 63 6 140 0 137
0 140 -24 156 -35 22 -70 15 -74 -16 -2 -14 -13 -35 -25 -47 -41 -45 -110 -18
-124 47 -5 30 -6 30 -73 30 l-68 0 -6 -35 c-7 -37 -38 -65 -72 -65 -35 0 -74
37 -74 71 0 25 -4 29 -28 29 -15 0 -38 -7 -50 -16z"/>
<path d="M710 995 c0 -33 2 -35 35 -35 33 0 35 2 35 35 0 33 -2 35 -35 35 -33
0 -35 -2 -35 -35z"/>
<path d="M830 996 c0 -35 1 -36 41 -36 39 0 40 1 37 33 -3 29 -6 32 -40 35
-37 3 -38 3 -38 -32z"/>
<path d="M960 995 c0 -33 2 -35 35 -35 33 0 35 2 35 35 0 33 -2 35 -35 35 -33
0 -35 -2 -35 -35z"/>
<path d="M1080 1000 c0 -28 3 -30 35 -30 32 0 35 2 35 30 0 28 -3 30 -35 30
-32 0 -35 -2 -35 -30z"/>
<path d="M1050 898 c-58 -32 -90 -85 -90 -153 0 -152 168 -230 280 -129 68 62
79 159 26 229 -37 48 -65 65 -122 71 -40 5 -58 1 -94 -18z m164 -67 c27 -28
31 -38 31 -87 0 -51 -3 -58 -37 -90 -28 -25 -47 -34 -73 -34 -74 0 -128 53
-128 125 0 110 129 163 207 86z"/>
<path d="M1104 806 c-3 -8 -4 -31 -2 -52 3 -33 9 -42 43 -61 45 -25 55 -28 55
-13 0 6 -16 18 -35 27 -33 16 -35 20 -35 65 0 45 -14 64 -26 34z"/>
<path d="M710 875 c0 -33 2 -35 35 -35 33 0 35 2 35 35 0 33 -2 35 -35 35 -33
0 -35 -2 -35 -35z"/>
<path d="M830 876 c0 -35 1 -36 41 -36 39 0 40 1 37 33 -3 29 -6 32 -40 35
-37 3 -38 3 -38 -32z"/>
<path d="M710 755 c0 -33 2 -35 35 -35 33 0 35 2 35 35 0 33 -2 35 -35 35 -33
0 -35 -2 -35 -35z"/>
<path d="M830 756 c0 -35 1 -36 41 -36 39 0 40 1 37 33 -3 29 -6 32 -40 35
-37 3 -38 3 -38 -32z"/>
</g>
</svg>
