<?xml version="1.0" standalone="no"?>
<!DOCTYPE svg PUBLIC "-//W3C//DTD SVG 20010904//EN"
 "http://www.w3.org/TR/2001/REC-SVG-20010904/DTD/svg10.dtd">
<svg version="1.0" xmlns="http://www.w3.org/2000/svg"
 width="300.000000pt" height="300.000000pt" viewBox="0 0 300.000000 300.000000"
 preserveAspectRatio="xMidYMid meet">

<g transform="translate(0.000000,300.000000) scale(0.100000,-0.100000)"
stroke="none">
<path d="M1341 2950 c-288 -61 -534 -277 -625 -550 -102 -308 -15 -651 220
-870 161 -151 339 -220 564 -220 185 0 304 36 456 136 233 154 364 395 366
674 2 187 -34 319 -125 459 -104 159 -261 283 -437 342 -86 29 -108 32 -235
35 -77 2 -160 -1 -184 -6z"/>
<path d="M628 1429 c-289 -38 -478 -250 -580 -649 -27 -103 -29 -126 -25 -225
9 -189 60 -325 149 -396 69 -54 115 -76 205 -100 73 -18 120 -19 1123 -19
1010 0 1050 1 1124 20 239 61 338 201 353 495 5 98 3 123 -22 220 -104 420
-325 647 -637 658 l-63 2 -136 -88 c-236 -151 -364 -196 -580 -204 -236 -9
-406 43 -650 200 -75 48 -149 89 -165 91 -16 2 -59 0 -96 -5z"/>
</g>
</svg>
