<?xml version="1.0" standalone="no"?>
<!DOCTYPE svg PUBLIC "-//W3C//DTD SVG 20010904//EN"
 "http://www.w3.org/TR/2001/REC-SVG-20010904/DTD/svg10.dtd">
<svg version="1.0" xmlns="http://www.w3.org/2000/svg"
 width="300.000000pt" height="300.000000pt" viewBox="0 0 300.000000 300.000000"
 preserveAspectRatio="xMidYMid meet">

<g transform="translate(0.000000,300.000000) scale(0.100000,-0.100000)"
stroke="none">
<path d="M955 2649 c-280 -36 -495 -301 -495 -609 0 -180 57 -318 185 -445
119 -120 226 -165 388 -165 154 0 267 48 383 164 126 126 184 266 184 447 0
372 -298 653 -645 608z m345 -854 c0 -14 -30 -62 -52 -81 -47 -43 -110 -67
-190 -72 -94 -6 -165 10 -218 49 -36 27 -80 82 -80 102 0 4 122 7 270 7 149 0
270 -2 270 -5z"/>
<path d="M2107 2649 c-82 -12 -186 -69 -250 -138 -243 -263 -142 -696 189
-812 47 -16 77 -20 149 -17 79 3 100 8 165 40 111 53 194 142 241 259 31 76
38 243 14 325 -66 233 -280 377 -508 343z m293 -676 c0 -3 -12 -21 -26 -40
-80 -105 -289 -112 -378 -12 -20 21 -36 44 -36 49 0 6 80 10 220 10 121 0 220
-3 220 -7z"/>
<path d="M1725 1622 c-62 -22 -133 -62 -163 -94 l-22 -25 55 -12 c113 -25 250
-110 337 -206 84 -94 158 -249 173 -360 3 -28 8 -61 11 -74 l5 -24 157 7 c335
15 591 68 651 134 23 25 23 29 18 166 -3 107 -10 155 -25 198 -53 147 -165
255 -305 293 l-63 17 -62 -40 c-91 -59 -169 -83 -287 -89 -139 -7 -250 25
-370 106 -36 25 -46 25 -110 3z"/>
<path d="M486 1364 c-175 -42 -326 -188 -392 -379 -25 -72 -28 -98 -32 -247
-5 -197 -2 -205 84 -245 300 -137 1100 -169 1564 -62 141 32 239 70 266 102
23 27 24 35 24 170 0 174 -16 254 -71 366 -74 150 -210 261 -364 296 l-68 16
-43 -31 c-59 -42 -176 -96 -254 -117 -87 -23 -253 -23 -340 0 -81 22 -188 71
-248 114 -53 37 -47 36 -126 17z"/>
</g>
</svg>
